<?xml version="1.0" standalone="no"?>
<!DOCTYPE svg PUBLIC "-//W3C//DTD SVG 20010904//EN"
 "http://www.w3.org/TR/2001/REC-SVG-20010904/DTD/svg10.dtd">
<svg version="1.0" xmlns="http://www.w3.org/2000/svg"
 width="1280.000000pt" height="1280.000000pt" viewBox="0 0 1280.000000 1280.000000"
 preserveAspectRatio="xMidYMid meet">
<g transform="translate(0.000000,1280.000000) scale(0.100000,-0.100000)"
fill="#000000" stroke="none">
<path d="M5785 11667 c-96 -32 -182 -102 -262 -214 l-45 -63 -58 0 c-106 0
-188 -44 -233 -127 -54 -102 -42 -210 34 -296 l41 -47 -31 -92 c-100 -307
-193 -709 -265 -1149 -27 -164 -56 -355 -56 -376 0 -22 -27 -14 -74 22 -106
81 -372 269 -515 365 -521 347 -963 569 -1308 656 -148 37 -318 39 -408 4 -81
-31 -157 -105 -187 -179 -30 -75 -32 -266 -4 -388 l19 -83 -55 -53 c-67 -64
-94 -131 -85 -212 14 -137 117 -225 264 -225 l71 0 37 -72 c42 -81 68 -129
128 -233 170 -294 314 -512 554 -842 57 -78 103 -146 103 -152 0 -13 -1 -13
-245 -51 -962 -151 -1673 -391 -1962 -663 -110 -105 -148 -177 -148 -287 0
-62 5 -85 28 -133 36 -72 107 -150 203 -222 74 -56 75 -57 67 -93 -20 -96 15
-207 82 -258 111 -84 270 -68 356 36 l35 42 158 -51 c346 -111 987 -251 1359
-296 34 -4 61 -13 64 -21 2 -7 -9 -30 -25 -51 -72 -92 -227 -312 -338 -478
-363 -544 -565 -946 -661 -1310 -21 -82 -26 -124 -27 -230 -1 -156 15 -212 83
-287 85 -95 204 -130 379 -110 55 7 106 14 114 17 11 4 25 -10 46 -48 62 -110
187 -158 306 -118 55 19 120 82 146 143 19 45 22 63 16 128 l-6 76 67 33 c346
169 820 468 1233 779 52 39 103 72 112 72 13 0 18 -12 23 -48 112 -825 301
-1553 500 -1930 98 -185 216 -322 321 -372 73 -35 170 -34 247 2 103 48 239
208 323 380 l27 56 81 -1 c91 -1 132 13 188 62 108 95 104 291 -8 378 -20 15
-45 35 -55 43 -20 15 -20 16 0 80 81 265 195 823 252 1238 7 50 16 97 20 104
10 16 32 4 154 -88 387 -290 858 -587 1190 -749 337 -165 569 -235 780 -237
331 -3 458 219 356 622 -17 69 -50 175 -72 235 -58 155 -58 150 -16 193 76 78
93 197 41 292 -51 94 -126 134 -243 128 l-75 -3 -88 145 c-160 260 -247 388
-567 831 -8 12 -10 23 -5 28 5 5 61 16 124 25 1052 155 1851 427 2116 720 79
87 108 153 108 246 0 108 -30 169 -137 274 l-82 81 0 75 c-1 63 -5 83 -30 128
-47 86 -123 131 -220 131 -63 0 -113 -17 -165 -59 -48 -38 -30 -40 -250 35
-304 104 -787 216 -1230 285 -238 37 -240 38 -240 51 0 6 20 36 44 67 140 183
402 571 538 797 202 337 303 543 394 800 l42 120 65 11 c134 22 217 107 225
230 6 83 -17 143 -74 200 -44 44 -116 74 -180 74 -25 0 -39 9 -68 45 -118 143
-331 162 -667 60 -385 -118 -971 -452 -1582 -901 -92 -68 -172 -124 -177 -124
-12 0 -14 13 -35 160 -146 1042 -400 1827 -679 2105 -100 101 -224 144 -321
112z m165 -52 c274 -97 541 -694 724 -1622 42 -212 116 -667 116 -711 0 -13
-54 -62 -167 -153 -200 -159 -464 -379 -623 -519 -63 -55 -122 -105 -131 -110
-13 -8 -45 15 -150 106 -265 228 -536 452 -706 583 -96 73 -93 63 -68 240 66
462 165 927 271 1276 55 180 69 209 92 199 32 -13 140 -16 175 -5 100 33 169
129 170 235 0 82 -24 136 -85 191 -63 57 -61 68 32 168 117 125 230 164 350
122z m-3004 -1290 c348 -60 852 -308 1449 -713 134 -91 420 -297 479 -345 l28
-23 -11 -85 c-22 -174 -60 -572 -76 -804 -22 -325 -22 -324 -48 -330 -12 -2
-101 -9 -197 -15 -243 -15 -564 -45 -832 -76 -125 -15 -233 -24 -242 -21 -23
9 -258 334 -420 581 -82 125 -126 197 -251 406 -51 85 -165 305 -165 318 0 6
21 31 47 54 60 56 83 106 83 186 0 73 -15 114 -61 167 -48 54 -119 85 -196 85
l-62 0 -10 38 c-31 116 -39 246 -20 334 45 212 213 293 505 243z m6094 -1 c74
-17 165 -72 176 -106 5 -18 1 -27 -22 -43 -104 -73 -146 -184 -112 -296 14
-47 67 -112 119 -145 22 -13 39 -31 39 -39 0 -8 -13 -54 -29 -102 -125 -382
-440 -939 -839 -1482 -47 -64 -99 -135 -115 -158 -37 -51 -30 -50 -247 -23
-206 25 -650 66 -880 81 -108 7 -190 16 -196 23 -7 6 -17 85 -24 196 -14 230
-43 559 -70 793 -28 251 -35 223 68 297 505 370 834 579 1197 762 412 208 730
291 935 242z m-3853 -1304 c385 -311 643 -531 643 -549 0 -5 -100 -100 -221
-212 -196 -181 -226 -205 -263 -210 -22 -4 -151 -8 -286 -10 l-245 -4 3 90 c5
176 43 625 77 920 19 156 23 175 35 175 5 0 121 -90 257 -200z m1609 189 c18
-30 104 -947 104 -1111 l0 -68 -82 1 c-46 0 -174 4 -285 8 l-202 9 -198 182
c-109 101 -211 196 -228 212 l-30 29 45 41 c236 213 838 708 862 708 4 0 10
-5 14 -11z m-894 -795 c106 -89 368 -338 368 -350 0 -12 -72 -14 -415 -14
-328 0 -415 3 -415 13 0 14 399 387 415 387 2 0 23 -16 47 -36z m468 -435 c30
-26 168 -161 307 -301 l251 -253 7 -253 c4 -138 4 -369 0 -512 l-7 -259 -207
-209 c-113 -115 -252 -253 -308 -306 l-102 -96 -457 0 -457 0 -95 93 c-210
205 -507 508 -514 525 -3 9 -7 239 -7 509 l-1 492 58 68 c33 38 170 177 306
310 l247 243 162 3 c89 2 297 2 462 -1 l300 -5 55 -48z m-1035 41 c6 -9 -522
-540 -537 -540 -17 0 2 504 19 521 6 6 99 13 209 18 294 12 302 12 309 1z
m1432 -6 c77 -4 126 -10 132 -18 6 -7 15 -118 21 -247 13 -293 13 -271 -5
-267 -22 4 -545 529 -539 540 6 9 58 7 391 -8z m-1981 -143 c-3 -69 -9 -195
-12 -280 l-7 -153 -230 -249 c-127 -137 -233 -249 -236 -249 -12 0 -29 18
-132 135 -201 230 -304 355 -498 600 -137 175 -155 201 -143 209 42 26 1198
134 1251 117 11 -3 12 -28 7 -130z m2661 99 c228 -20 636 -64 701 -76 63 -12
69 0 -142 -264 -262 -328 -572 -690 -591 -690 -6 0 -47 39 -90 87 -44 48 -146
158 -227 245 -132 142 -147 162 -152 201 -3 23 -8 152 -12 286 l-6 244 144 -7
c78 -3 248 -15 375 -26z m-3900 -176 c227 -287 451 -557 640 -773 46 -52 83
-102 83 -110 0 -9 -62 -86 -136 -171 -174 -198 -410 -484 -580 -702 -42 -54
-79 -98 -82 -98 -4 0 -104 15 -222 34 -509 82 -952 186 -1285 303 l-80 28 -1
80 c0 89 -14 127 -68 183 -52 56 -101 76 -181 76 -79 0 -129 -20 -179 -73 -17
-17 -36 -31 -44 -31 -20 0 -123 82 -172 137 -24 27 -56 76 -72 111 -27 55 -30
71 -26 135 4 92 32 149 111 234 131 140 398 284 742 400 328 110 747 210 1175
278 91 15 185 30 210 35 95 17 94 17 167 -76z m4839 66 c549 -84 1003 -189
1373 -319 80 -28 149 -55 154 -60 6 -6 5 -21 -3 -42 -8 -18 -13 -60 -13 -94 1
-110 75 -209 178 -236 93 -26 216 12 265 81 12 17 30 30 40 30 25 0 132 -117
161 -176 16 -34 25 -72 27 -121 4 -64 1 -80 -26 -135 -36 -78 -91 -141 -185
-211 -278 -209 -799 -394 -1497 -532 -248 -49 -607 -106 -625 -99 -7 3 -21 16
-30 30 -52 80 -416 524 -632 771 -73 84 -133 158 -133 165 0 7 71 94 158 194
211 243 304 357 561 682 40 50 78 92 85 92 7 0 71 -9 142 -20z m-3622 -949 c1
-255 -2 -465 -7 -468 -4 -2 -45 35 -90 83 -45 49 -131 140 -191 204 -138 147
-160 175 -149 194 25 44 415 457 427 453 6 -2 10 -170 10 -466z m2353 311
c263 -283 277 -300 266 -325 -6 -12 -57 -71 -114 -132 -57 -60 -146 -156 -198
-212 -51 -57 -99 -103 -107 -103 -12 0 -14 74 -14 460 0 395 2 460 14 460 8 0
77 -67 153 -148z m-2708 -448 c52 -58 154 -168 227 -244 l132 -139 7 -168 c3
-92 7 -220 8 -283 l2 -115 -115 2 c-265 5 -1120 90 -1144 114 -12 11 -4 22
173 244 275 345 576 695 600 695 9 0 59 -48 110 -106z m3153 -47 c150 -172
307 -361 460 -552 142 -178 173 -224 162 -234 -22 -21 -721 -93 -1136 -117
-97 -6 -118 -4 -119 7 -1 18 1 100 10 351 l7 206 82 89 c45 48 146 159 224
245 79 86 151 157 160 157 9 1 74 -65 150 -152z m-642 -643 c-7 -167 -15 -253
-23 -261 -8 -8 -90 -14 -264 -19 -216 -6 -253 -5 -253 7 0 24 528 545 540 533
7 -7 7 -88 0 -260z m-1840 -9 c145 -145 261 -267 257 -271 -7 -8 -73 -7 -329
2 -97 4 -181 10 -188 14 -7 4 -14 70 -20 186 -13 257 -13 334 3 334 6 0 131
-119 277 -265z m-1405 -180 c239 -28 517 -54 810 -76 160 -11 294 -25 299 -30
5 -4 15 -97 22 -206 17 -259 50 -616 75 -826 17 -137 18 -171 8 -184 -16 -19
-192 -150 -372 -277 -349 -247 -814 -523 -1040 -618 -13 -6 -29 3 -60 31 -49
45 -88 66 -140 75 -57 11 -141 -11 -189 -47 -51 -39 -98 -124 -98 -177 0 -21
-6 -42 -13 -48 -23 -19 -183 -32 -260 -22 -128 19 -206 70 -254 167 -23 48
-27 72 -31 167 -3 79 1 136 12 196 82 411 400 1011 910 1715 122 169 139 187
170 180 11 -2 80 -11 151 -20z m4539 19 c55 -21 676 -946 676 -1006 0 -8 -20
-35 -45 -61 -98 -103 -96 -256 6 -355 56 -55 93 -67 196 -65 l91 1 37 -96 c20
-54 51 -149 68 -212 28 -104 32 -129 32 -260 0 -132 -2 -150 -24 -198 -29 -65
-104 -134 -169 -157 -332 -114 -1056 196 -1960 842 -268 192 -302 220 -302
252 0 14 9 107 20 205 26 230 56 564 70 786 13 198 15 210 38 210 149 0 1222
103 1249 119 1 1 8 -2 17 -5z m-3076 -130 c273 -8 228 10 424 -173 236 -221
268 -252 268 -260 0 -15 -422 -375 -670 -572 -233 -184 -234 -185 -244 -151
-14 46 -65 564 -91 925 -18 247 -17 253 45 243 19 -3 140 -8 268 -12z m1760
-44 c7 -126 -82 -1097 -105 -1132 -7 -13 -36 8 -228 161 -342 272 -675 559
-675 582 0 15 295 298 407 392 l45 37 117 1 c64 1 175 5 246 9 203 11 189 15
193 -50z m-630 16 c-2 -8 -63 -69 -136 -137 -204 -190 -262 -239 -278 -239 -8
0 -41 24 -72 53 -200 184 -342 321 -342 328 0 5 184 9 416 9 350 0 415 -2 412
-14z m-307 -509 c261 -229 526 -448 711 -590 59 -45 110 -91 113 -102 11 -38
-77 -569 -148 -901 -37 -169 -123 -502 -137 -523 -4 -8 -33 -14 -67 -16 -72
-4 -127 -26 -171 -68 -56 -53 -76 -102 -76 -182 0 -83 15 -118 81 -187 l46
-46 -38 -69 c-95 -170 -198 -288 -295 -336 -73 -37 -163 -37 -238 -2 -230 107
-461 574 -627 1270 -90 377 -200 1021 -183 1067 4 8 65 60 136 116 151 118
496 404 662 550 63 56 120 101 126 102 6 0 53 -37 105 -83z"/>
<path d="M5647 7779 c-130 -31 -209 -131 -211 -269 -1 -72 -1 -73 -71 -46
-118 45 -267 -19 -326 -141 -50 -102 -17 -242 75 -319 25 -21 46 -41 46 -45 0
-4 -20 -19 -45 -33 -74 -44 -125 -135 -125 -226 0 -128 88 -235 214 -262 l43
-9 5 -72 c6 -84 28 -135 85 -189 93 -91 240 -96 350 -12 l33 25 22 -28 c72
-86 132 -117 228 -117 145 0 247 98 259 249 6 68 7 70 31 67 104 -15 171 -13
212 6 102 45 158 130 158 241 0 89 -30 152 -101 213 l-54 47 46 19 c57 25 115
81 140 136 25 55 25 166 0 221 -35 79 -142 155 -218 155 -39 0 -48 13 -44 62
7 102 -64 216 -160 258 -79 33 -178 26 -249 -18 l-52 -33 -48 45 c-73 68 -160
95 -243 75z m234 -862 c-13 -13 -26 -3 -16 12 3 6 11 8 17 5 6 -4 6 -10 -1
-17z"/>
</g>
</svg>
